%TF.GenerationSoftware,KiCad,Pcbnew,5.1.6*%
%TF.CreationDate,2020-07-17T22:30:16+02:00*%
%TF.ProjectId,FPC10_Adapterboard,46504331-305f-4416-9461-70746572626f,rev?*%
%TF.SameCoordinates,Original*%
%TF.FileFunction,Legend,Top*%
%TF.FilePolarity,Positive*%
%FSLAX46Y46*%
G04 Gerber Fmt 4.6, Leading zero omitted, Abs format (unit mm)*
G04 Created by KiCad (PCBNEW 5.1.6) date 2020-07-17 22:30:16*
%MOMM*%
%LPD*%
G01*
G04 APERTURE LIST*
%ADD10C,0.120000*%
%ADD11C,0.150000*%
G04 APERTURE END LIST*
D10*
%TO.C,J1*%
X119391000Y-86359000D02*
X119391000Y-85959000D01*
X118991000Y-86159000D02*
X119391000Y-86359000D01*
X119391000Y-85959000D02*
X118991000Y-86159000D01*
X116801000Y-93734000D02*
X116201000Y-93734000D01*
X116801000Y-93624000D02*
X116801000Y-93734000D01*
X116801000Y-83084000D02*
X116201000Y-83084000D01*
X116801000Y-83194000D02*
X116801000Y-83084000D01*
%TO.C,J2*%
X124193001Y-75806001D02*
X125523001Y-75806001D01*
X124193001Y-77136001D02*
X124193001Y-75806001D01*
X124193001Y-78406001D02*
X126853001Y-78406001D01*
X126853001Y-78406001D02*
X126853001Y-101326001D01*
X124193001Y-78406001D02*
X124193001Y-101326001D01*
X124193001Y-101326001D02*
X126853001Y-101326001D01*
%TO.C,J3*%
X128843001Y-101326001D02*
X131503001Y-101326001D01*
X128843001Y-78406001D02*
X128843001Y-101326001D01*
X131503001Y-78406001D02*
X131503001Y-101326001D01*
X128843001Y-78406001D02*
X131503001Y-78406001D01*
X128843001Y-77136001D02*
X128843001Y-75806001D01*
X128843001Y-75806001D02*
X130173001Y-75806001D01*
%TO.C,J4*%
X133493001Y-75806001D02*
X134823001Y-75806001D01*
X133493001Y-77136001D02*
X133493001Y-75806001D01*
X133493001Y-78406001D02*
X136153001Y-78406001D01*
X136153001Y-78406001D02*
X136153001Y-101326001D01*
X133493001Y-78406001D02*
X133493001Y-101326001D01*
X133493001Y-101326001D02*
X136153001Y-101326001D01*
%TO.C,J1*%
D11*
X121393380Y-88742333D02*
X122107666Y-88742333D01*
X122250523Y-88789952D01*
X122345761Y-88885190D01*
X122393380Y-89028047D01*
X122393380Y-89123285D01*
X122393380Y-87742333D02*
X122393380Y-88313761D01*
X122393380Y-88028047D02*
X121393380Y-88028047D01*
X121536238Y-88123285D01*
X121631476Y-88218523D01*
X121679095Y-88313761D01*
%TD*%
M02*
