%TF.GenerationSoftware,KiCad,Pcbnew,5.1.6*%
%TF.CreationDate,2020-07-17T22:30:16+02:00*%
%TF.ProjectId,FPC10_Adapterboard,46504331-305f-4416-9461-70746572626f,rev?*%
%TF.SameCoordinates,Original*%
%TF.FileFunction,Soldermask,Top*%
%TF.FilePolarity,Negative*%
%FSLAX46Y46*%
G04 Gerber Fmt 4.6, Leading zero omitted, Abs format (unit mm)*
G04 Created by KiCad (PCBNEW 5.1.6) date 2020-07-17 22:30:16*
%MOMM*%
%LPD*%
G01*
G04 APERTURE LIST*
%ADD10R,1.200000X0.400000*%
%ADD11R,3.200000X2.800000*%
%ADD12R,1.800000X1.800000*%
%ADD13O,1.800000X1.800000*%
G04 APERTURE END LIST*
D10*
%TO.C,J1*%
X120191000Y-86159000D03*
X120191000Y-86659000D03*
X120191000Y-87159000D03*
X120191000Y-87659000D03*
X120191000Y-88159000D03*
X120191000Y-88659000D03*
X120191000Y-89159000D03*
X120191000Y-89659000D03*
X120191000Y-90159000D03*
X120191000Y-90659000D03*
D11*
X118491000Y-84289000D03*
X118491000Y-92529000D03*
%TD*%
D12*
%TO.C,J2*%
X125523001Y-77136001D03*
D13*
X125523001Y-79676001D03*
X125523001Y-82216001D03*
X125523001Y-84756001D03*
X125523001Y-87296001D03*
X125523001Y-89836001D03*
X125523001Y-92376001D03*
X125523001Y-94916001D03*
X125523001Y-97456001D03*
X125523001Y-99996001D03*
%TD*%
%TO.C,J3*%
X130173001Y-99996001D03*
X130173001Y-97456001D03*
X130173001Y-94916001D03*
X130173001Y-92376001D03*
X130173001Y-89836001D03*
X130173001Y-87296001D03*
X130173001Y-84756001D03*
X130173001Y-82216001D03*
X130173001Y-79676001D03*
D12*
X130173001Y-77136001D03*
%TD*%
%TO.C,J4*%
X134823001Y-77136001D03*
D13*
X134823001Y-79676001D03*
X134823001Y-82216001D03*
X134823001Y-84756001D03*
X134823001Y-87296001D03*
X134823001Y-89836001D03*
X134823001Y-92376001D03*
X134823001Y-94916001D03*
X134823001Y-97456001D03*
X134823001Y-99996001D03*
%TD*%
M02*
