%TF.GenerationSoftware,KiCad,Pcbnew,5.1.6*%
%TF.CreationDate,2020-07-17T22:30:16+02:00*%
%TF.ProjectId,FPC10_Adapterboard,46504331-305f-4416-9461-70746572626f,rev?*%
%TF.SameCoordinates,Original*%
%TF.FileFunction,Copper,L1,Top*%
%TF.FilePolarity,Positive*%
%FSLAX46Y46*%
G04 Gerber Fmt 4.6, Leading zero omitted, Abs format (unit mm)*
G04 Created by KiCad (PCBNEW 5.1.6) date 2020-07-17 22:30:16*
%MOMM*%
%LPD*%
G01*
G04 APERTURE LIST*
%TA.AperFunction,SMDPad,CuDef*%
%ADD10R,1.100000X0.300000*%
%TD*%
%TA.AperFunction,SMDPad,CuDef*%
%ADD11R,3.100000X2.700000*%
%TD*%
%TA.AperFunction,ComponentPad*%
%ADD12R,1.700000X1.700000*%
%TD*%
%TA.AperFunction,ComponentPad*%
%ADD13O,1.700000X1.700000*%
%TD*%
%TA.AperFunction,Conductor*%
%ADD14C,0.250000*%
%TD*%
G04 APERTURE END LIST*
D10*
%TO.P,J1,1*%
%TO.N,P1*%
X120191000Y-86159000D03*
%TO.P,J1,2*%
%TO.N,P2*%
X120191000Y-86659000D03*
%TO.P,J1,3*%
%TO.N,P3*%
X120191000Y-87159000D03*
%TO.P,J1,4*%
%TO.N,P4*%
X120191000Y-87659000D03*
%TO.P,J1,5*%
%TO.N,P5*%
X120191000Y-88159000D03*
%TO.P,J1,6*%
%TO.N,P6*%
X120191000Y-88659000D03*
%TO.P,J1,7*%
%TO.N,P7*%
X120191000Y-89159000D03*
%TO.P,J1,8*%
%TO.N,P8*%
X120191000Y-89659000D03*
%TO.P,J1,9*%
%TO.N,P9*%
X120191000Y-90159000D03*
%TO.P,J1,10*%
%TO.N,P10*%
X120191000Y-90659000D03*
D11*
%TO.P,J1,MP*%
%TO.N,Net-(J1-PadMP)*%
X118491000Y-84289000D03*
X118491000Y-92529000D03*
%TD*%
D12*
%TO.P,J2,1*%
%TO.N,P1*%
X125523001Y-77136001D03*
D13*
%TO.P,J2,2*%
%TO.N,P2*%
X125523001Y-79676001D03*
%TO.P,J2,3*%
%TO.N,P3*%
X125523001Y-82216001D03*
%TO.P,J2,4*%
%TO.N,P4*%
X125523001Y-84756001D03*
%TO.P,J2,5*%
%TO.N,P5*%
X125523001Y-87296001D03*
%TO.P,J2,6*%
%TO.N,P6*%
X125523001Y-89836001D03*
%TO.P,J2,7*%
%TO.N,P7*%
X125523001Y-92376001D03*
%TO.P,J2,8*%
%TO.N,P8*%
X125523001Y-94916001D03*
%TO.P,J2,9*%
%TO.N,P9*%
X125523001Y-97456001D03*
%TO.P,J2,10*%
%TO.N,P10*%
X125523001Y-99996001D03*
%TD*%
%TO.P,J3,10*%
%TO.N,P10*%
X130173001Y-99996001D03*
%TO.P,J3,9*%
%TO.N,P9*%
X130173001Y-97456001D03*
%TO.P,J3,8*%
%TO.N,P8*%
X130173001Y-94916001D03*
%TO.P,J3,7*%
%TO.N,P7*%
X130173001Y-92376001D03*
%TO.P,J3,6*%
%TO.N,P6*%
X130173001Y-89836001D03*
%TO.P,J3,5*%
%TO.N,P5*%
X130173001Y-87296001D03*
%TO.P,J3,4*%
%TO.N,P4*%
X130173001Y-84756001D03*
%TO.P,J3,3*%
%TO.N,P3*%
X130173001Y-82216001D03*
%TO.P,J3,2*%
%TO.N,P2*%
X130173001Y-79676001D03*
D12*
%TO.P,J3,1*%
%TO.N,P1*%
X130173001Y-77136001D03*
%TD*%
%TO.P,J4,1*%
%TO.N,P1*%
X134823001Y-77136001D03*
D13*
%TO.P,J4,2*%
%TO.N,P2*%
X134823001Y-79676001D03*
%TO.P,J4,3*%
%TO.N,P3*%
X134823001Y-82216001D03*
%TO.P,J4,4*%
%TO.N,P4*%
X134823001Y-84756001D03*
%TO.P,J4,5*%
%TO.N,P5*%
X134823001Y-87296001D03*
%TO.P,J4,6*%
%TO.N,P6*%
X134823001Y-89836001D03*
%TO.P,J4,7*%
%TO.N,P7*%
X134823001Y-92376001D03*
%TO.P,J4,8*%
%TO.N,P8*%
X134823001Y-94916001D03*
%TO.P,J4,9*%
%TO.N,P9*%
X134823001Y-97456001D03*
%TO.P,J4,10*%
%TO.N,P10*%
X134823001Y-99996001D03*
%TD*%
D14*
%TO.N,P1*%
X120191000Y-86159000D02*
X121215989Y-85134011D01*
X125523001Y-77284977D02*
X121215989Y-81591989D01*
X125523001Y-77136001D02*
X125523001Y-77284977D01*
X121215989Y-85134011D02*
X121215989Y-81591989D01*
X125523001Y-77136001D02*
X130173001Y-77136001D01*
X130173001Y-77136001D02*
X134823001Y-77136001D01*
%TO.N,P2*%
X121666000Y-83533002D02*
X125523001Y-79676001D01*
X121666000Y-85847590D02*
X121666000Y-83533002D01*
X120854590Y-86659000D02*
X121666000Y-85847590D01*
X120191000Y-86659000D02*
X120854590Y-86659000D01*
X125523001Y-79676001D02*
X130173001Y-79676001D01*
X130173001Y-79676001D02*
X134823001Y-79676001D01*
%TO.N,P3*%
X120991000Y-87159000D02*
X120191000Y-87159000D01*
X125523001Y-82626999D02*
X120991000Y-87159000D01*
X125523001Y-82216001D02*
X125523001Y-82626999D01*
X125523001Y-82216001D02*
X130173001Y-82216001D01*
X130173001Y-82216001D02*
X134823001Y-82216001D01*
%TO.N,P4*%
X122620002Y-87659000D02*
X125523001Y-84756001D01*
X120191000Y-87659000D02*
X122620002Y-87659000D01*
X125523001Y-84756001D02*
X130173001Y-84756001D01*
X130173001Y-84756001D02*
X134823001Y-84756001D01*
%TO.N,P5*%
X124660002Y-88159000D02*
X125523001Y-87296001D01*
X120191000Y-88159000D02*
X124660002Y-88159000D01*
X125523001Y-87296001D02*
X130173001Y-87296001D01*
X130173001Y-87296001D02*
X134823001Y-87296001D01*
%TO.N,P6*%
X124346000Y-88659000D02*
X125523001Y-89836001D01*
X120191000Y-88659000D02*
X124346000Y-88659000D01*
X125523001Y-89836001D02*
X130173001Y-89836001D01*
X130173001Y-89836001D02*
X134823001Y-89836001D01*
%TO.N,P7*%
X120191000Y-89159000D02*
X122306000Y-89159000D01*
X122306000Y-89159000D02*
X125523001Y-92376001D01*
X125523001Y-92376001D02*
X130173001Y-92376001D01*
X130173001Y-92376001D02*
X134823001Y-92376001D01*
%TO.N,P8*%
X120191000Y-89659000D02*
X121112413Y-89659000D01*
X121112413Y-89659000D02*
X125523001Y-94069588D01*
X125523001Y-94069588D02*
X125523001Y-94916001D01*
X125523001Y-94916001D02*
X130173001Y-94916001D01*
X130173001Y-94916001D02*
X134823001Y-94916001D01*
%TO.N,P9*%
X124348000Y-96281000D02*
X125523001Y-97456001D01*
X124348000Y-93530998D02*
X124348000Y-96281000D01*
X120191000Y-90159000D02*
X120215999Y-90183999D01*
X121001001Y-90183999D02*
X124348000Y-93530998D01*
X120215999Y-90183999D02*
X121001001Y-90183999D01*
X125523001Y-97456001D02*
X130173001Y-97456001D01*
X130173001Y-97456001D02*
X134823001Y-97456001D01*
%TO.N,P10*%
X120191000Y-90659000D02*
X120250000Y-90659000D01*
X120250000Y-90659000D02*
X123825000Y-94234000D01*
X123825000Y-98298000D02*
X125523001Y-99996001D01*
X123825000Y-94234000D02*
X123825000Y-98298000D01*
X125523001Y-99996001D02*
X130173001Y-99996001D01*
X130173001Y-99996001D02*
X134823001Y-99996001D01*
%TD*%
M02*
