M48
; DRILL file {KiCad 5.1.6} date Fri Jul 17 22:26:16 2020
; FORMAT={-:-/ absolute / inch / decimal}
; #@! TF.CreationDate,2020-07-17T22:26:16+02:00
; #@! TF.GenerationSoftware,Kicad,Pcbnew,5.1.6
; #@! TF.FileFunction,Plated,1,2,PTH
FMAT,2
INCH
T1C0.0394
%
G90
G05
T1
X4.9419Y-3.0369
X4.9419Y-3.1369
X4.9419Y-3.2369
X4.9419Y-3.3369
X4.9419Y-3.4369
X4.9419Y-3.5369
X4.9419Y-3.6369
X4.9419Y-3.7369
X4.9419Y-3.8369
X4.9419Y-3.9369
X5.1249Y-3.0369
X5.1249Y-3.1369
X5.1249Y-3.2369
X5.1249Y-3.3369
X5.1249Y-3.4369
X5.1249Y-3.5369
X5.1249Y-3.6369
X5.1249Y-3.7369
X5.1249Y-3.8369
X5.1249Y-3.9369
X5.308Y-3.0369
X5.308Y-3.1369
X5.308Y-3.2369
X5.308Y-3.3369
X5.308Y-3.4369
X5.308Y-3.5369
X5.308Y-3.6369
X5.308Y-3.7369
X5.308Y-3.8369
X5.308Y-3.9369
T0
M30
